<mxfile host="Electron" modified="2024-01-17T10:45:40.722Z" agent="Mozilla/5.0 (X11; Linux x86_64) AppleWebKit/537.36 (KHTML, like Gecko) draw.io/21.6.1 Chrome/112.0.5615.204 Electron/24.6.1 Safari/537.36" etag="GSL0ivpC9zmn2pwZWNqB" version="21.6.1" type="device">
  <diagram name="Page-1" id="OCD1pQ2lFyb5-pAs6mBr">
    <mxGraphModel dx="1039" dy="631" grid="1" gridSize="10" guides="1" tooltips="1" connect="1" arrows="1" fold="1" page="1" pageScale="1" pageWidth="850" pageHeight="1100" math="1" shadow="0">
      <root>
        <mxCell id="0" />
        <mxCell id="1" parent="0" />
        <mxCell id="sD0XBtN898RwaV4NvgBG-1" value="$$P_{0}$$" style="text;html=1;strokeColor=none;fillColor=none;align=center;verticalAlign=middle;whiteSpace=wrap;rounded=0;fontSize=14;" parent="1" vertex="1">
          <mxGeometry x="10" y="70" width="40" height="40" as="geometry" />
        </mxCell>
        <mxCell id="sD0XBtN898RwaV4NvgBG-2" value="$$P_{1}$$" style="text;html=1;strokeColor=none;fillColor=none;align=center;verticalAlign=middle;whiteSpace=wrap;rounded=0;fontSize=14;" parent="1" vertex="1">
          <mxGeometry x="10" y="110" width="40" height="40" as="geometry" />
        </mxCell>
        <mxCell id="sD0XBtN898RwaV4NvgBG-13" value="15" style="rounded=0;whiteSpace=wrap;html=1;fillColor=#d5e8d4;strokeColor=#82b366;" parent="1" vertex="1">
          <mxGeometry x="50" y="80" width="20" height="30" as="geometry" />
        </mxCell>
        <mxCell id="sD0XBtN898RwaV4NvgBG-14" value="$$P_{2}$$" style="text;html=1;strokeColor=none;fillColor=none;align=center;verticalAlign=middle;whiteSpace=wrap;rounded=0;fontSize=14;" parent="1" vertex="1">
          <mxGeometry x="10" y="150" width="40" height="40" as="geometry" />
        </mxCell>
        <mxCell id="sD0XBtN898RwaV4NvgBG-28" value="$$P_{3}$$" style="text;html=1;strokeColor=none;fillColor=none;align=center;verticalAlign=middle;whiteSpace=wrap;rounded=0;fontSize=14;" parent="1" vertex="1">
          <mxGeometry x="10" y="190" width="40" height="40" as="geometry" />
        </mxCell>
        <mxCell id="sD0XBtN898RwaV4NvgBG-29" value="" style="endArrow=classic;html=1;rounded=0;" parent="1" edge="1">
          <mxGeometry width="50" height="50" relative="1" as="geometry">
            <mxPoint x="50" y="240" as="sourcePoint" />
            <mxPoint x="210" y="240" as="targetPoint" />
          </mxGeometry>
        </mxCell>
        <mxCell id="sD0XBtN898RwaV4NvgBG-30" value="execution progress (in ms)" style="text;html=1;strokeColor=none;fillColor=none;align=center;verticalAlign=middle;whiteSpace=wrap;rounded=0;fontStyle=2" parent="1" vertex="1">
          <mxGeometry x="43" y="240" width="150" height="20" as="geometry" />
        </mxCell>
        <mxCell id="dyOHYiIMp45q6dB9HG6w-65" value="&lt;font style=&quot;font-size: 14px;&quot;&gt;Expected performance model&lt;/font&gt;" style="text;html=1;strokeColor=none;fillColor=none;align=center;verticalAlign=middle;whiteSpace=wrap;rounded=0;fontStyle=1" parent="1" vertex="1">
          <mxGeometry x="30" y="40" width="210" height="30" as="geometry" />
        </mxCell>
        <mxCell id="E4jaz9_r6LfAv21_UV1V-21" value="38" style="rounded=0;whiteSpace=wrap;html=1;fillColor=#d5e8d4;strokeColor=#82b366;" parent="1" vertex="1">
          <mxGeometry x="350" y="120" width="50" height="30" as="geometry" />
        </mxCell>
        <mxCell id="E4jaz9_r6LfAv21_UV1V-22" value="66" style="rounded=0;whiteSpace=wrap;html=1;fillColor=#d5e8d4;strokeColor=#82b366;" parent="1" vertex="1">
          <mxGeometry x="350" y="160" width="86.5" height="30" as="geometry" />
        </mxCell>
        <mxCell id="E4jaz9_r6LfAv21_UV1V-23" value="67" style="rounded=0;whiteSpace=wrap;html=1;fillColor=#d5e8d4;strokeColor=#82b366;" parent="1" vertex="1">
          <mxGeometry x="350" y="200" width="90" height="30" as="geometry" />
        </mxCell>
        <mxCell id="E4jaz9_r6LfAv21_UV1V-24" value="15" style="rounded=0;whiteSpace=wrap;html=1;fillColor=#d5e8d4;strokeColor=#82b366;" parent="1" vertex="1">
          <mxGeometry x="80" y="80" width="20" height="30" as="geometry" />
        </mxCell>
        <mxCell id="E4jaz9_r6LfAv21_UV1V-25" value="15" style="rounded=0;whiteSpace=wrap;html=1;fillColor=#d5e8d4;strokeColor=#82b366;" parent="1" vertex="1">
          <mxGeometry x="110" y="80" width="20" height="30" as="geometry" />
        </mxCell>
        <mxCell id="E4jaz9_r6LfAv21_UV1V-26" value="15" style="rounded=0;whiteSpace=wrap;html=1;fillColor=#d5e8d4;strokeColor=#82b366;" parent="1" vertex="1">
          <mxGeometry x="140" y="80" width="20" height="30" as="geometry" />
        </mxCell>
        <mxCell id="E4jaz9_r6LfAv21_UV1V-27" value="15" style="rounded=0;whiteSpace=wrap;html=1;fillColor=#d5e8d4;strokeColor=#82b366;" parent="1" vertex="1">
          <mxGeometry x="170" y="80" width="20" height="30" as="geometry" />
        </mxCell>
        <mxCell id="E4jaz9_r6LfAv21_UV1V-28" value="15" style="rounded=0;whiteSpace=wrap;html=1;fillColor=#d5e8d4;strokeColor=#82b366;" parent="1" vertex="1">
          <mxGeometry x="50" y="120" width="20" height="30" as="geometry" />
        </mxCell>
        <mxCell id="E4jaz9_r6LfAv21_UV1V-29" value="15" style="rounded=0;whiteSpace=wrap;html=1;fillColor=#d5e8d4;strokeColor=#82b366;" parent="1" vertex="1">
          <mxGeometry x="80" y="120" width="20" height="30" as="geometry" />
        </mxCell>
        <mxCell id="E4jaz9_r6LfAv21_UV1V-30" value="15" style="rounded=0;whiteSpace=wrap;html=1;fillColor=#d5e8d4;strokeColor=#82b366;" parent="1" vertex="1">
          <mxGeometry x="110" y="120" width="20" height="30" as="geometry" />
        </mxCell>
        <mxCell id="E4jaz9_r6LfAv21_UV1V-31" value="15" style="rounded=0;whiteSpace=wrap;html=1;fillColor=#d5e8d4;strokeColor=#82b366;" parent="1" vertex="1">
          <mxGeometry x="140" y="120" width="20" height="30" as="geometry" />
        </mxCell>
        <mxCell id="E4jaz9_r6LfAv21_UV1V-32" value="15" style="rounded=0;whiteSpace=wrap;html=1;fillColor=#d5e8d4;strokeColor=#82b366;" parent="1" vertex="1">
          <mxGeometry x="170" y="120" width="20" height="30" as="geometry" />
        </mxCell>
        <mxCell id="E4jaz9_r6LfAv21_UV1V-33" value="15" style="rounded=0;whiteSpace=wrap;html=1;fillColor=#d5e8d4;strokeColor=#82b366;" parent="1" vertex="1">
          <mxGeometry x="50" y="160" width="20" height="30" as="geometry" />
        </mxCell>
        <mxCell id="E4jaz9_r6LfAv21_UV1V-34" value="15" style="rounded=0;whiteSpace=wrap;html=1;fillColor=#d5e8d4;strokeColor=#82b366;" parent="1" vertex="1">
          <mxGeometry x="80" y="160" width="20" height="30" as="geometry" />
        </mxCell>
        <mxCell id="E4jaz9_r6LfAv21_UV1V-35" value="15" style="rounded=0;whiteSpace=wrap;html=1;fillColor=#d5e8d4;strokeColor=#82b366;" parent="1" vertex="1">
          <mxGeometry x="110" y="160" width="20" height="30" as="geometry" />
        </mxCell>
        <mxCell id="E4jaz9_r6LfAv21_UV1V-36" value="15" style="rounded=0;whiteSpace=wrap;html=1;fillColor=#d5e8d4;strokeColor=#82b366;" parent="1" vertex="1">
          <mxGeometry x="140" y="160" width="20" height="30" as="geometry" />
        </mxCell>
        <mxCell id="E4jaz9_r6LfAv21_UV1V-37" value="15" style="rounded=0;whiteSpace=wrap;html=1;fillColor=#d5e8d4;strokeColor=#82b366;" parent="1" vertex="1">
          <mxGeometry x="170" y="160" width="20" height="30" as="geometry" />
        </mxCell>
        <mxCell id="E4jaz9_r6LfAv21_UV1V-38" value="15" style="rounded=0;whiteSpace=wrap;html=1;fillColor=#d5e8d4;strokeColor=#82b366;" parent="1" vertex="1">
          <mxGeometry x="50" y="200" width="20" height="30" as="geometry" />
        </mxCell>
        <mxCell id="E4jaz9_r6LfAv21_UV1V-39" value="15" style="rounded=0;whiteSpace=wrap;html=1;fillColor=#d5e8d4;strokeColor=#82b366;" parent="1" vertex="1">
          <mxGeometry x="80" y="200" width="20" height="30" as="geometry" />
        </mxCell>
        <mxCell id="E4jaz9_r6LfAv21_UV1V-40" value="15" style="rounded=0;whiteSpace=wrap;html=1;fillColor=#d5e8d4;strokeColor=#82b366;" parent="1" vertex="1">
          <mxGeometry x="110" y="200" width="20" height="30" as="geometry" />
        </mxCell>
        <mxCell id="E4jaz9_r6LfAv21_UV1V-41" value="15" style="rounded=0;whiteSpace=wrap;html=1;fillColor=#d5e8d4;strokeColor=#82b366;" parent="1" vertex="1">
          <mxGeometry x="140" y="200" width="20" height="30" as="geometry" />
        </mxCell>
        <mxCell id="E4jaz9_r6LfAv21_UV1V-42" value="15" style="rounded=0;whiteSpace=wrap;html=1;fillColor=#d5e8d4;strokeColor=#82b366;" parent="1" vertex="1">
          <mxGeometry x="170" y="200" width="20" height="30" as="geometry" />
        </mxCell>
        <mxCell id="E4jaz9_r6LfAv21_UV1V-43" value="$$P_{0}$$" style="text;html=1;strokeColor=none;fillColor=none;align=center;verticalAlign=middle;whiteSpace=wrap;rounded=0;fontSize=14;" parent="1" vertex="1">
          <mxGeometry x="310" y="70" width="40" height="40" as="geometry" />
        </mxCell>
        <mxCell id="E4jaz9_r6LfAv21_UV1V-44" value="$$P_{1}$$" style="text;html=1;strokeColor=none;fillColor=none;align=center;verticalAlign=middle;whiteSpace=wrap;rounded=0;fontSize=14;" parent="1" vertex="1">
          <mxGeometry x="310" y="110" width="40" height="40" as="geometry" />
        </mxCell>
        <mxCell id="E4jaz9_r6LfAv21_UV1V-45" value="15" style="rounded=0;whiteSpace=wrap;html=1;fillColor=#d5e8d4;strokeColor=#82b366;" parent="1" vertex="1">
          <mxGeometry x="350" y="80" width="20" height="30" as="geometry" />
        </mxCell>
        <mxCell id="E4jaz9_r6LfAv21_UV1V-46" value="$$P_{2}$$" style="text;html=1;strokeColor=none;fillColor=none;align=center;verticalAlign=middle;whiteSpace=wrap;rounded=0;fontSize=14;" parent="1" vertex="1">
          <mxGeometry x="310" y="150" width="40" height="40" as="geometry" />
        </mxCell>
        <mxCell id="E4jaz9_r6LfAv21_UV1V-47" value="$$P_{3}$$" style="text;html=1;strokeColor=none;fillColor=none;align=center;verticalAlign=middle;whiteSpace=wrap;rounded=0;fontSize=14;" parent="1" vertex="1">
          <mxGeometry x="310" y="190" width="40" height="40" as="geometry" />
        </mxCell>
        <mxCell id="E4jaz9_r6LfAv21_UV1V-48" value="" style="endArrow=classic;html=1;rounded=0;" parent="1" edge="1">
          <mxGeometry width="50" height="50" relative="1" as="geometry">
            <mxPoint x="350" y="240" as="sourcePoint" />
            <mxPoint x="840" y="240" as="targetPoint" />
          </mxGeometry>
        </mxCell>
        <mxCell id="E4jaz9_r6LfAv21_UV1V-49" value="execution progress (in ms)" style="text;html=1;strokeColor=none;fillColor=none;align=center;verticalAlign=middle;whiteSpace=wrap;rounded=0;fontStyle=2" parent="1" vertex="1">
          <mxGeometry x="350" y="240" width="150" height="20" as="geometry" />
        </mxCell>
        <mxCell id="E4jaz9_r6LfAv21_UV1V-50" value="15" style="rounded=0;whiteSpace=wrap;html=1;fillColor=#d5e8d4;strokeColor=#82b366;" parent="1" vertex="1">
          <mxGeometry x="380" y="80" width="20" height="30" as="geometry" />
        </mxCell>
        <mxCell id="E4jaz9_r6LfAv21_UV1V-51" value="15" style="rounded=0;whiteSpace=wrap;html=1;fillColor=#d5e8d4;strokeColor=#82b366;" parent="1" vertex="1">
          <mxGeometry x="410" y="80" width="20" height="30" as="geometry" />
        </mxCell>
        <mxCell id="E4jaz9_r6LfAv21_UV1V-52" value="15" style="rounded=0;whiteSpace=wrap;html=1;fillColor=#d5e8d4;strokeColor=#82b366;" parent="1" vertex="1">
          <mxGeometry x="440" y="80" width="20" height="30" as="geometry" />
        </mxCell>
        <mxCell id="E4jaz9_r6LfAv21_UV1V-53" value="15" style="rounded=0;whiteSpace=wrap;html=1;fillColor=#d5e8d4;strokeColor=#82b366;" parent="1" vertex="1">
          <mxGeometry x="470" y="80" width="20" height="30" as="geometry" />
        </mxCell>
        <mxCell id="E4jaz9_r6LfAv21_UV1V-69" value="38" style="rounded=0;whiteSpace=wrap;html=1;fillColor=#d5e8d4;strokeColor=#82b366;" parent="1" vertex="1">
          <mxGeometry x="410" y="120" width="50" height="30" as="geometry" />
        </mxCell>
        <mxCell id="E4jaz9_r6LfAv21_UV1V-70" value="38" style="rounded=0;whiteSpace=wrap;html=1;fillColor=#d5e8d4;strokeColor=#82b366;" parent="1" vertex="1">
          <mxGeometry x="470" y="120" width="50" height="30" as="geometry" />
        </mxCell>
        <mxCell id="E4jaz9_r6LfAv21_UV1V-71" value="38" style="rounded=0;whiteSpace=wrap;html=1;fillColor=#d5e8d4;strokeColor=#82b366;" parent="1" vertex="1">
          <mxGeometry x="530" y="120" width="50" height="30" as="geometry" />
        </mxCell>
        <mxCell id="E4jaz9_r6LfAv21_UV1V-72" value="38" style="rounded=0;whiteSpace=wrap;html=1;fillColor=#d5e8d4;strokeColor=#82b366;" parent="1" vertex="1">
          <mxGeometry x="590" y="120" width="50" height="30" as="geometry" />
        </mxCell>
        <mxCell id="E4jaz9_r6LfAv21_UV1V-73" value="66" style="rounded=0;whiteSpace=wrap;html=1;fillColor=#d5e8d4;strokeColor=#82b366;" parent="1" vertex="1">
          <mxGeometry x="443.5" y="160" width="86.5" height="30" as="geometry" />
        </mxCell>
        <mxCell id="E4jaz9_r6LfAv21_UV1V-74" value="66" style="rounded=0;whiteSpace=wrap;html=1;fillColor=#d5e8d4;strokeColor=#82b366;" parent="1" vertex="1">
          <mxGeometry x="538" y="160" width="86.5" height="30" as="geometry" />
        </mxCell>
        <mxCell id="E4jaz9_r6LfAv21_UV1V-75" value="66" style="rounded=0;whiteSpace=wrap;html=1;fillColor=#d5e8d4;strokeColor=#82b366;" parent="1" vertex="1">
          <mxGeometry x="633" y="160" width="86.5" height="30" as="geometry" />
        </mxCell>
        <mxCell id="E4jaz9_r6LfAv21_UV1V-76" value="66" style="rounded=0;whiteSpace=wrap;html=1;fillColor=#d5e8d4;strokeColor=#82b366;" parent="1" vertex="1">
          <mxGeometry x="728" y="160" width="86.5" height="30" as="geometry" />
        </mxCell>
        <mxCell id="E4jaz9_r6LfAv21_UV1V-77" value="67" style="rounded=0;whiteSpace=wrap;html=1;fillColor=#d5e8d4;strokeColor=#82b366;" parent="1" vertex="1">
          <mxGeometry x="448" y="200" width="90" height="30" as="geometry" />
        </mxCell>
        <mxCell id="E4jaz9_r6LfAv21_UV1V-78" value="67" style="rounded=0;whiteSpace=wrap;html=1;fillColor=#d5e8d4;strokeColor=#82b366;" parent="1" vertex="1">
          <mxGeometry x="545" y="200" width="90" height="30" as="geometry" />
        </mxCell>
        <mxCell id="E4jaz9_r6LfAv21_UV1V-79" value="67" style="rounded=0;whiteSpace=wrap;html=1;fillColor=#d5e8d4;strokeColor=#82b366;" parent="1" vertex="1">
          <mxGeometry x="642" y="200" width="90" height="30" as="geometry" />
        </mxCell>
        <mxCell id="E4jaz9_r6LfAv21_UV1V-80" value="67" style="rounded=0;whiteSpace=wrap;html=1;fillColor=#d5e8d4;strokeColor=#82b366;" parent="1" vertex="1">
          <mxGeometry x="740" y="200" width="90" height="30" as="geometry" />
        </mxCell>
        <mxCell id="E4jaz9_r6LfAv21_UV1V-81" value="&lt;font style=&quot;font-size: 14px;&quot;&gt;Unexpected performance model&lt;/font&gt;" style="text;html=1;strokeColor=none;fillColor=none;align=center;verticalAlign=middle;whiteSpace=wrap;rounded=0;fontStyle=1" parent="1" vertex="1">
          <mxGeometry x="350" y="40" width="230" height="30" as="geometry" />
        </mxCell>
        <mxCell id="E4jaz9_r6LfAv21_UV1V-82" value="Average Load: 75 (ms)" style="text;html=1;strokeColor=none;fillColor=none;align=left;verticalAlign=middle;whiteSpace=wrap;rounded=0;fontColor=#660000;" parent="1" vertex="1">
          <mxGeometry x="70" y="270" width="130" height="27.14" as="geometry" />
        </mxCell>
        <mxCell id="E4jaz9_r6LfAv21_UV1V-83" value="Average Load: 232.5 (ms)" style="text;html=1;strokeColor=none;fillColor=none;align=left;verticalAlign=middle;whiteSpace=wrap;rounded=0;fontColor=#660000;" parent="1" vertex="1">
          <mxGeometry x="540" y="260" width="150" height="27.14" as="geometry" />
        </mxCell>
        <mxCell id="b0s11GlhOtlhLMGPoz1Z-1" value="" style="endArrow=none;dashed=1;html=1;rounded=0;strokeColor=#660000;" edge="1" parent="1">
          <mxGeometry width="50" height="50" relative="1" as="geometry">
            <mxPoint x="193" y="273" as="sourcePoint" />
            <mxPoint x="193" y="75.00000000000001" as="targetPoint" />
          </mxGeometry>
        </mxCell>
        <mxCell id="b0s11GlhOtlhLMGPoz1Z-3" value="" style="endArrow=none;dashed=1;html=1;rounded=0;strokeColor=#660000;" edge="1" parent="1">
          <mxGeometry width="50" height="50" relative="1" as="geometry">
            <mxPoint x="685" y="270.99999999999994" as="sourcePoint" />
            <mxPoint x="685" y="73.00000000000003" as="targetPoint" />
          </mxGeometry>
        </mxCell>
      </root>
    </mxGraphModel>
  </diagram>
</mxfile>
